# xmcd CD database file
#
# Track frame offsets:
#	183
#	14608
#	29295
#	39620
#	58695
#	71920
#	86208
#	99395
#	110695
#	123495
#	135008
#	147108
#	158433
#	172720
#	187795
#	199958
#	210558
#	224495
#	241858
#	259845
#
# Disc length: 3641 seconds
#
# Revision: 4
# Processed by: cddbd v1.5.2PL0 Copyright (c) Steve Scherf et al.
# Submitted via: CDex 1.51
#
DISCID=180e3714
DTITLE=Various Artist - Country Sweethearts
DYEAR=1990
DGENRE=Country
TTITLE0=Heart Of The Country - Kathy Mattea
TTITLE1=Please Mr. Please - Lorrie Morgan
TTITLE2=Just In Case - Forester Sisters
TTITLE3=Delta Dawn - Tanya Tucker
TTITLE4=It's What You Don't Do - Patty Loveless
TTITLE5=Chains Of Gold - Sweethearts Of The Rodeo
TTITLE6=Cry - Lynn Anderson
TTITLE7=Stand By Your Man - Tammy Wynette
TTITLE8=What Are We Doin' In Love - Dottie West
TTITLE9=Total Woman - Jeannie C. Riley
TTITLE10=It's A Lovely Lovely World - Gail Davies
TTITLE11=Fools - Helen Cornelius
TTITLE12=Over You - Lane Brody
TTITLE13=Teddy Bear Song - Barbara Fairchild
TTITLE14=Oklahoma Heart - Becky Hobbs
TTITLE15=Standard Lie Number One - Stella Parton
TTITLE16=I've Been Had By Love Before - Judy Rodman
TTITLE17=Somebody's Knockin' - Terri Gibbs
TTITLE18=Always On My Mind - Denise Price
TTITLE19=Did We Have To Come This Far To Say Goodbye - Connie Smith
EXTD=YEAR: 1990
EXTT0=
EXTT1=
EXTT2=
EXTT3=
EXTT4=
EXTT5=
EXTT6=
EXTT7=
EXTT8=
EXTT9=
EXTT10=
EXTT11=
EXTT12=
EXTT13=
EXTT14=
EXTT15=
EXTT16=
EXTT17=
EXTT18=
EXTT19=
PLAYORDER=
